<?xml version="1.0" encoding="UTF-8" standalone="no"?>
<!-- Created with Inkscape (http://www.inkscape.org/) -->

<svg
   xmlns:dc="http://purl.org/dc/elements/1.1/"
   xmlns:cc="http://creativecommons.org/ns#"
   xmlns:rdf="http://www.w3.org/1999/02/22-rdf-syntax-ns#"
   xmlns:svg="http://www.w3.org/2000/svg"
   xmlns="http://www.w3.org/2000/svg"
   xmlns:sodipodi="http://sodipodi.sourceforge.net/DTD/sodipodi-0.dtd"
   xmlns:inkscape="http://www.inkscape.org/namespaces/inkscape"
   id="svg2985"
   version="1.1"
   inkscape:version="0.48.4 r9939"
   width="1483.7521"
   height="91.327019"
   xml:space="preserve"
   sodipodi:docname="shield_laser_template_v15-blabs-both_scratch_file.svg"><metadata
     id="metadata2991"><rdf:RDF><cc:Work
         rdf:about=""><dc:format>image/svg+xml</dc:format><dc:type
           rdf:resource="http://purl.org/dc/dcmitype/StillImage" /><dc:title></dc:title></cc:Work></rdf:RDF></metadata><defs
     id="defs2989"><clipPath
       clipPathUnits="userSpaceOnUse"
       id="clipPath2999"><path
         d="m 0,2104 2808,0 L 2808,0 0,0 0,2104 z"
         id="path3001"
         inkscape:connector-curvature="0" /></clipPath><clipPath
       clipPathUnits="userSpaceOnUse"
       id="clipPath3041"><path
         d="m 0,2104 2808,0 L 2808,0 0,0 0,2104 z"
         id="path3043"
         inkscape:connector-curvature="0" /></clipPath><clipPath
       clipPathUnits="userSpaceOnUse"
       id="clipPath3223"><path
         d="m 0,2104 2808,0 L 2808,0 0,0 0,2104 z"
         id="path3225"
         inkscape:connector-curvature="0" /></clipPath><clipPath
       clipPathUnits="userSpaceOnUse"
       id="clipPath3319"><path
         d="m 0,2104 2808,0 L 2808,0 0,0 0,2104 z"
         id="path3321"
         inkscape:connector-curvature="0" /></clipPath><clipPath
       clipPathUnits="userSpaceOnUse"
       id="clipPath3041-8"><path
         d="m 0,2104 2808,0 L 2808,0 0,0 0,2104 z"
         id="path3043-7"
         inkscape:connector-curvature="0" /></clipPath></defs><sodipodi:namedview
     pagecolor="#ffffff"
     bordercolor="#666666"
     borderopacity="1"
     objecttolerance="10"
     gridtolerance="10"
     guidetolerance="10"
     inkscape:pageopacity="0"
     inkscape:pageshadow="2"
     inkscape:window-width="1203"
     inkscape:window-height="632"
     id="namedview2987"
     showgrid="false"
     inkscape:document-units="in"
     units="in"
     fit-margin-top="0"
     fit-margin-left="0"
     fit-margin-right="0"
     fit-margin-bottom="0"
     inkscape:zoom="0.31330798"
     inkscape:cx="456.38171"
     inkscape:cy="-535.531"
     inkscape:window-x="-4"
     inkscape:window-y="-4"
     inkscape:window-maximized="1"
     inkscape:current-layer="g2993" /><g
     id="g2993"
     inkscape:groupmode="layer"
     inkscape:label="shield_laser_template_v15"
     transform="matrix(1.25,0,0,-1.25,53.346486,1249.5299)"><g
       id="g4095"
       transform="matrix(-0.97698297,0,0,-0.96484813,714.1371,2543.6861)"><path
         id="path3847-8"
         style="fill:none;stroke:#231f20;stroke-width:1.02997577;stroke-linecap:butt;stroke-linejoin:miter;stroke-miterlimit:10;stroke-opacity:1;stroke-dasharray:none"
         d="m -105.45446,1657.8458 -14.245,-0.296 0,4.997 c 0,0.606 -2.609,0.019 -3.169,-0.212 -3.128,-1.289 0,0 -15.026,-17.84 -1.015,-1.204 -1.805,-2.573 -1.805,-4.148 l 0,-4.337 c 0,-1.575 0.79,-2.943 1.805,-4.148 15.026,-17.841 11.898,-16.551 15.026,-17.841 0.56,-0.231 3.169,-0.817 3.169,-0.211 l 0,4.998 14.245,-0.297"
         inkscape:connector-curvature="0" /><path
         id="path3851-8"
         style="fill:none;stroke:#231f20;stroke-width:1.02997577;stroke-linecap:butt;stroke-linejoin:miter;stroke-miterlimit:10;stroke-opacity:1;stroke-dasharray:none"
         d="m 440.3908,1657.8458 14.24496,-0.296 0,4.997 c 0,0.606 2.60904,0.019 3.16896,-0.212 3.12808,-1.289 10.37608,-13.517 15.02608,-17.84 1.154,-1.072 1.80496,-2.573 1.80496,-4.148 l 0,-4.337 c 0,-1.575 -0.65096,-3.076 -1.80496,-4.148 -4.65,-4.323 -11.898,-16.551 -15.02608,-17.841 -0.55992,-0.231 -3.16896,-0.817 -3.16896,-0.211 l 0,4.998 -14.24496,-0.297"
         inkscape:connector-curvature="0" /><path
         id="path3953-6"
         style="fill:none;stroke:#231f20;stroke-width:1.02997577;stroke-linecap:butt;stroke-linejoin:miter;stroke-miterlimit:10;stroke-opacity:1;stroke-dasharray:none"
         d="m 765.62852,1600.8345 -1196.935,0 c -4.697,0 -8.504,3.807 -8.504,8.504 l 0,57.679 c 0,4.697 3.807,8.504 8.504,8.504 l 1196.935,0 c 4.697,0 8.504,-3.807 8.504,-8.504 l 0,-57.679 c 0,-4.697 -3.807,-8.504 -8.504,-8.504 z"
         inkscape:connector-curvature="0" /></g></g></svg>